HIERARCHY
ROOT Hips
{
  OFFSET 196.326 95.9168 97.7182
  CHANNELS 6 Xposition Yposition Zposition Zrotation Xrotation Yrotation
  JOINT LeftUpLeg
  {
    OFFSET 8.64259 1.95398 -2.38835
    CHANNELS 3 Zrotation Xrotation Yrotation
    JOINT LeftLeg
    {
      OFFSET 43.7702 0 0
      CHANNELS 3 Zrotation Xrotation Yrotation
      JOINT LeftFoot
      {
        OFFSET 40.6238 0 0
        CHANNELS 3 Zrotation Xrotation Yrotation
        JOINT LeftToeBase
        {
          OFFSET 12.7242 0 0
          CHANNELS 3 Zrotation Xrotation Yrotation
          End Site
          {
            OFFSET 0 0 0
          }
        }
      }
    }
  }
  JOINT RightUpLeg
  {
    OFFSET -8.2249 1.95398 -2.59336
    CHANNELS 3 Zrotation Xrotation Yrotation
    JOINT RightLeg
    {
      OFFSET 43.5653 0 0
      CHANNELS 3 Zrotation Xrotation Yrotation
      JOINT RightFoot
      {
        OFFSET 40.6238 0 0
        CHANNELS 3 Zrotation Xrotation Yrotation
        JOINT RightToeBase
        {
          OFFSET 12.7242 0 0
          CHANNELS 3 Zrotation Xrotation Yrotation
          End Site
          {
            OFFSET 0 0 0
          }
        }
      }
    }
  }
  JOINT Spine
  {
    OFFSET 0.165834 0.87714 6.61349
    CHANNELS 3 Zrotation Xrotation Yrotation
    JOINT Spine1
    {
      OFFSET 7.38963 1.71661e-005 0
      CHANNELS 3 Zrotation Xrotation Yrotation
      JOINT Spine2
      {
        OFFSET 11.9445 1.14441e-005 0
        CHANNELS 3 Zrotation Xrotation Yrotation
        JOINT Spine3
        {
          OFFSET 14.7254 4.19617e-005 0
          CHANNELS 3 Zrotation Xrotation Yrotation
          JOINT Spine4
          {
            OFFSET 10.9679 0 0
            CHANNELS 3 Zrotation Xrotation Yrotation
            JOINT RightShoulder
            {
              OFFSET 2.46616 -1.6653 3.69651
              CHANNELS 3 Zrotation Xrotation Yrotation
              JOINT RightArm
              {
                OFFSET 13.0012 0 0
                CHANNELS 3 Zrotation Xrotation Yrotation
                JOINT RightForeArm
                {
                  OFFSET 28.7848 1.52588e-005 0
                  CHANNELS 3 Zrotation Xrotation Yrotation
                  JOINT RightHand
                  {
                    OFFSET 26.5688 1.52588e-005 0
                    CHANNELS 3 Zrotation Xrotation Yrotation
                    End Site
                    {
                      OFFSET 0 0 0
                    }
                  }
                }
              }
            }
            JOINT LeftShoulder
            {
              OFFSET 2.38034 -1.29275 -3.75231
              CHANNELS 3 Zrotation Xrotation Yrotation
              JOINT LeftArm
              {
                OFFSET 16.3182 6.10351e-005 0
                CHANNELS 3 Zrotation Xrotation Yrotation
                JOINT LeftForeArm
                {
                  OFFSET 27.0901 0 0
                  CHANNELS 3 Zrotation Xrotation Yrotation
                  JOINT LeftHand
                  {
                    OFFSET 24.5451 1.52588e-005 0
                    CHANNELS 3 Zrotation Xrotation Yrotation
                    End Site
                    {
                      OFFSET 0 0 0
                    }
                  }
                }
              }
            }
            JOINT Neck
            {
              OFFSET 5.0226 -0.0266342 0
              CHANNELS 3 Zrotation Xrotation Yrotation
              JOINT Head
              {
                OFFSET 6.69363 2.86102e-005 0
                CHANNELS 3 Zrotation Xrotation Yrotation
                End Site
                {
                  OFFSET 0 0 0
                }
              }
            }
          }
        }
      }
    }
  }
}
MOTION
Frames:	9
Frame Time:	0.0416667
-46.6939 97.0502 41.7041 -56.7011 -84.6666 -56.4327 -171.41 5.57195 91.7151 -6.09892 6.2059 -0.898333 58.6959 4.46765 13.5738 38.9686 9.04634 -34.8611 177.665 6.67169 89.1604 -10.538 9.13256 -0.287458 63.7722 -1.69733 -0.892091 30.3528 -0.867413 19.3491 -0.0407673 6.61674 -90.0808 13.6403 -0.120088 -0.146307 1.96935 -0.126416 -0.140891 -20.5658 -0.0705683 -0.175632 -0.553111 -0.0705674 -0.175642 81.268 -49.7792 -114.097 27.0322 -12.7124 4.04086 -3.03709 -13.7903 -37.4588 -7.61779 -0.767694 6.14901 -102.025 -42.9398 58.0988 -29.2249 12.363 1.14646 2.19219 10.74 -28.99 13.0128 1.24304 5.47897 14.0481 2.60322 1.59238 -7.1241 2.10979 1.95006 
-46.6853 97.0293 41.7367 -55.7312 -84.6297 -55.4242 -171.378 5.65038 91.7551 -6.10135 6.3038 -0.937554 58.8572 4.6927 13.7847 38.4633 8.72579 -35.3505 177.689 6.72004 89.1891 -10.5117 8.93188 -0.288149 63.9089 -1.73985 -0.918224 30.2861 -0.864114 18.981 -0.042348 6.60966 -90.0896 13.6544 -0.127501 -0.162902 1.98349 -0.134552 -0.157133 -20.5516 -0.0726561 -0.193689 -0.538963 -0.0726524 -0.193691 81.4111 -49.5865 -113.958 27.2252 -12.6744 3.98079 -3.22201 -13.7707 -37.4404 -7.66975 -0.775065 6.20159 -102.038 -42.9657 58.09 -29.2352 12.3441 1.08517 2.2107 10.807 -28.9539 12.9372 1.24386 5.53403 14.1317 2.6657 1.46039 -7.2053 2.20157 2.10241 
-46.7011 97.034 41.7214 -56.0404 -84.6254 -55.744 -171.411 5.63986 91.7464 -6.11044 5.99385 -0.878248 58.8805 4.50768 13.2621 38.9815 9.05877 -34.7516 177.706 6.62882 89.2035 -10.3924 8.88591 -0.311334 64.0053 -1.79018 -0.948067 30.0836 -0.893367 18.6565 -0.0373595 6.61075 -90.0822 13.6523 -0.11399 -0.149783 1.9813 -0.120465 -0.14462 -20.5538 -0.0637029 -0.177113 -0.541146 -0.063701 -0.177112 81.4085 -49.7248 -113.91 27.1101 -12.7285 3.91849 -3.30845 -13.8678 -37.4284 -7.34718 -0.74342 6.12118 -102.117 -42.9585 57.9641 -29.1468 12.3152 1.13307 2.15563 10.6629 -28.8895 12.8445 1.23592 5.53574 14.0972 2.62053 1.37603 -7.18402 2.17983 2.28413 
-46.6835 97.0425 41.7095 -56.2256 -84.6869 -55.9327 -171.441 5.60443 91.7149 -6.13288 6.11185 -0.852237 58.8383 4.52301 13.3471 38.575 8.82562 -34.6058 177.661 6.62188 89.1753 -10.4477 8.9701 -0.276914 63.8594 -1.74708 -0.922441 30.2553 -0.875071 19.057 -0.0491244 6.61028 -90.0883 13.6475 -0.140264 -0.158602 1.97658 -0.147106 -0.152281 -20.5585 -0.0861112 -0.193423 -0.545881 -0.0861122 -0.193431 81.264 -49.6421 -114.155 27.1336 -12.6154 4.05444 -3.05995 -13.8042 -37.3456 -7.7824 -0.77541 6.03846 -102.169 -43.1143 57.9574 -29.0786 12.3064 1.17196 2.16326 10.6489 -28.9428 12.9823 1.23292 5.42398 14.1268 2.73753 1.68815 -7.07212 2.21491 1.98735 
-46.6907 97.0368 41.731 -55.6962 -84.6746 -55.3775 -171.459 5.66565 91.7299 -6.12224 6.3749 -0.855644 58.5516 4.41708 13.744 39.6723 9.44928 -35.0402 177.625 6.66447 89.1756 -10.4742 8.98405 -0.225524 64.0387 -1.80821 -0.959133 30.1418 -0.918084 19.3725 -0.0475523 6.60699 -90.0899 13.6553 -0.137946 -0.162159 1.98434 -0.144952 -0.155931 -20.5508 -0.0828358 -0.196125 -0.538114 -0.0828395 -0.196126 81.3354 -49.6036 -114.064 27.2103 -12.6109 3.99653 -3.06466 -13.7165 -37.3443 -7.66265 -0.752486 5.81587 -102.127 -43.034 57.9852 -29.1152 12.3434 1.13329 2.16383 10.6935 -28.9454 12.9844 1.23075 5.40696 14.1873 2.68692 1.62038 -7.17436 2.18015 2.04363 
-46.7049 97.0322 41.7169 -56.2291 -84.6514 -55.9883 -171.478 5.61438 91.6567 -6.11655 6.34581 -0.861812 58.7894 4.69875 13.9297 38.3628 8.69496 -34.6974 177.645 6.70117 89.1283 -10.5294 8.86219 -0.276003 63.7825 -1.71369 -0.903475 30.464 -0.824411 19.0063 -0.036682 6.60302 -90.0693 13.6457 -0.10638 -0.12507 1.97476 -0.111787 -0.120277 -20.5604 -0.0638746 -0.151269 -0.54771 -0.0638742 -0.151266 81.3288 -49.6693 -114.048 27.2918 -12.6073 4.03135 -3.02729 -13.7599 -37.3852 -7.94073 -0.775552 5.81506 -102.044 -42.9339 58.0665 -29.1216 12.3811 1.12534 2.15409 10.698 -28.954 12.9269 1.21263 5.30976 14.1414 2.60464 1.44016 -7.12694 2.14876 2.12231 
-46.7433 97.0386 41.7221 -56.827 -84.6935 -56.6483 -171.395 5.53944 91.6809 -6.09507 6.39239 -0.962269 58.6244 4.61433 14.1309 39.9949 9.54167 -36.5712 177.646 6.71982 89.0976 -10.747 8.90514 -0.321247 64.155 -1.77237 -0.936283 30.137 -0.898991 18.9913 -0.047011 6.59987 -90.061 13.6482 -0.12286 -0.106442 1.97726 -0.127427 -0.10093 -20.5579 -0.0851934 -0.138448 -0.545241 -0.0851948 -0.138442 81.1338 -49.7485 -114.309 27.1495 -12.5664 4.07948 -2.92597 -13.7403 -37.324 -7.75915 -0.755509 5.73044 -102.227 -43.0859 57.8554 -28.9412 12.3093 1.37309 2.25543 10.67 -29.1677 12.7967 1.21801 5.43373 14.1083 2.73652 1.4446 -7.08489 2.27673 2.26367 
-46.7225 97.0384 41.718 -56.6212 -84.6831 -56.3807 -171.435 5.568 91.7004 -6.11838 6.25362 -0.884315 58.7567 4.54164 13.6089 38.6336 8.85845 -34.6403 177.665 6.61465 89.1584 -10.4946 9.0132 -0.29652 64.0769 -1.78812 -0.946326 29.9301 -0.963368 19.2919 -0.0465325 6.59948 -90.0693 13.6633 -0.125906 -0.122534 1.99235 -0.13118 -0.116882 -20.5428 -0.0832669 -0.154709 -0.53013 -0.0832626 -0.154715 81.2782 -49.5843 -114.157 27.4056 -12.5465 4.09503 -3.04517 -13.6651 -37.3988 -7.53036 -0.733121 5.66629 -102.137 -43.0716 57.9866 -29.0384 12.29 1.26604 2.26349 10.8093 -29.0223 12.9263 1.21014 5.29159 14.0334 2.66478 1.56685 -7.11321 2.17599 2.14417 
-46.714 97.0367 41.7283 -55.9382 -84.7278 -55.6861 -171.479 5.62009 91.6878 -6.1445 6.32411 -0.849447 58.6278 4.51477 13.8057 39.5232 9.32686 -35.6252 177.708 6.65472 89.1708 -10.5327 9.16367 -0.339106 63.9954 -1.74703 -0.92132 30.0576 -0.945495 19.5141 -0.046785 6.60625 -90.0747 13.6618 -0.128997 -0.13271 1.99083 -0.134717 -0.126906 -20.5443 -0.0831607 -0.165338 -0.531661 -0.083155 -0.165339 81.3863 -49.5328 -114.015 27.3555 -12.5815 3.98564 -3.06368 -13.9059 -37.366 -7.57107 -0.740623 5.72853 -102.212 -43.0526 57.8635 -28.969 12.4063 1.22329 2.14495 10.6644 -29.0031 12.9867 1.217 5.30371 14.0965 2.71409 1.5883 -7.16389 2.21592 2.28574 
